<svg xmlns="http://www.w3.org/2000/svg" width="1200" height="541.5" viewBox="0 83.1 1200 541.5" role="img" aria-labelledby="title desc">
<title id="title">FIG-20. District A vs B lens worked example</title>
<desc id="desc">Worked example bar chart.</desc>
<style>
text { font-family: Arial, Helvetica, sans-serif; fill: #1f2933; }
.title { font-size: 26px; font-weight: 700; }
.subtitle { font-size: 15px; fill: #52606d; }
.label { font-size: 15px; font-weight: 700; }
.small { font-size: 12px; fill: #52606d; }
.tiny { font-size: 10.5px; fill: #52606d; }
.note { font-size: 12px; fill: #3e4c59; font-style: italic; }
.axis { stroke: #52606d; stroke-width: 1.2; }
.gridline { stroke: #d9e2ec; stroke-width: 1; }
.arrow { stroke: #52606d; stroke-width: 2.0; fill: none; marker-end: url(#arrow); }
</style>
<defs>
<marker id="arrow" viewBox="0 0 12 12" refX="10" refY="6" markerWidth="12" markerHeight="12" markerUnits="userSpaceOnUse" orient="auto-start-reverse">
<path d="M 1 1 L 11 6 L 1 11 z" fill="#52606d"/>
</marker>
</defs>
<rect x="0" y="83.1" width="1200" height="541.5" fill="white" data-bg="canvas"/>
<rect x="70" y="130" width="520" height="425" rx="6" fill="#f8fafc" stroke="#d9e2ec"/>
<text x="330.0" y="112.0" class="label" text-anchor="middle">Panel A: lens scores</text>
<line x1="125" y1="500" x2="555" y2="500" stroke="#52606d" stroke-width="1.3"/>
<line x1="125" y1="210" x2="125" y2="500" stroke="#52606d" stroke-width="1.3"/>
<line x1="125" y1="500.0" x2="555" y2="500.0" stroke="#d9e2ec" stroke-width="0.8"/>
<text x="115.0" y="504.0" class="tiny" text-anchor="end">0</text>
<line x1="125" y1="427.5" x2="555" y2="427.5" stroke="#d9e2ec" stroke-width="0.8"/>
<text x="115.0" y="431.5" class="tiny" text-anchor="end">25</text>
<line x1="125" y1="355.0" x2="555" y2="355.0" stroke="#d9e2ec" stroke-width="0.8"/>
<text x="115.0" y="359.0" class="tiny" text-anchor="end">50</text>
<line x1="125" y1="282.5" x2="555" y2="282.5" stroke="#d9e2ec" stroke-width="0.8"/>
<text x="115.0" y="286.5" class="tiny" text-anchor="end">75</text>
<line x1="125" y1="210.0" x2="555" y2="210.0" stroke="#d9e2ec" stroke-width="0.8"/>
<text x="115.0" y="214.0" class="tiny" text-anchor="end">100</text>
<rect x="180" y="239.0" width="30" height="261.0" fill="#2f80b7"/>
<text x="195.0" y="231.0" class="tiny" text-anchor="middle">90</text>
<rect x="330" y="442.0" width="30" height="58.0" fill="#2b8a7e"/>
<text x="345.0" y="434.0" class="tiny" text-anchor="middle">20</text>
<rect x="480" y="210.0" width="30" height="290.0" fill="#c77700"/>
<text x="495.0" y="202.0" class="tiny" text-anchor="middle">100</text>
<rect x="222" y="442.0" width="30" height="58.0" fill="#2f80b7"/>
<text x="237.0" y="434.0" class="tiny" text-anchor="middle">20</text>
<rect x="372" y="210.0" width="30" height="290.0" fill="#2b8a7e"/>
<text x="387.0" y="202.0" class="tiny" text-anchor="middle">100</text>
<rect x="522" y="384.0" width="30" height="116.0" fill="#c77700"/>
<text x="537.0" y="376.0" class="tiny" text-anchor="middle">40</text>
<g class="math-label" data-math-tex="S_{\mathrm{abs}}" data-math-x="216" data-math-y="528" data-math-anchor="middle" data-math-size="12" data-math-display="0"><text x="216.0" y="528.0" class="small" text-anchor="middle">S_abs</text></g>
<g class="math-label" data-math-tex="S_{\mathrm{chg}}" data-math-x="366" data-math-y="528" data-math-anchor="middle" data-math-size="12" data-math-display="0"><text x="366.0" y="528.0" class="small" text-anchor="middle">S_chg</text></g>
<g class="math-label" data-math-tex="S_{\mathrm{imp}}" data-math-x="516" data-math-y="528" data-math-anchor="middle" data-math-size="12" data-math-display="0"><text x="516.0" y="528.0" class="small" text-anchor="middle">S_imp</text></g>
<text x="185.0" y="580.0" class="small" text-anchor="start">A: TXx 45.5 deg C, anomaly +1.5 deg C</text>
<text x="185.0" y="604.0" class="small" text-anchor="start">B: TXx 42.0 deg C, anomaly +3.5 deg C</text>
<rect x="670" y="130" width="460" height="425" rx="6" fill="#f8fafc" stroke="#d9e2ec"/>
<text x="900.0" y="112.0" class="label" text-anchor="middle">Panel B: blended vs pure-absolute</text>
<line x1="725" y1="500" x2="1085" y2="500" stroke="#52606d" stroke-width="1.3"/>
<line x1="725" y1="210" x2="725" y2="500" stroke="#52606d" stroke-width="1.3"/>
<line x1="725" y1="500.0" x2="1085" y2="500.0" stroke="#d9e2ec" stroke-width="0.8"/>
<text x="715.0" y="504.0" class="tiny" text-anchor="end">0</text>
<line x1="725" y1="427.5" x2="1085" y2="427.5" stroke="#d9e2ec" stroke-width="0.8"/>
<text x="715.0" y="431.5" class="tiny" text-anchor="end">25</text>
<line x1="725" y1="355.0" x2="1085" y2="355.0" stroke="#d9e2ec" stroke-width="0.8"/>
<text x="715.0" y="359.0" class="tiny" text-anchor="end">50</text>
<line x1="725" y1="282.5" x2="1085" y2="282.5" stroke="#d9e2ec" stroke-width="0.8"/>
<text x="715.0" y="286.5" class="tiny" text-anchor="end">75</text>
<line x1="725" y1="210.0" x2="1085" y2="210.0" stroke="#d9e2ec" stroke-width="0.8"/>
<text x="715.0" y="214.0" class="tiny" text-anchor="end">100</text>
<rect x="805" y="279.6" width="34" height="220.4" fill="#b8324f"/>
<text x="822.0" y="271.6" class="tiny" text-anchor="middle">76</text>
<rect x="847" y="239.0" width="34" height="261.0" fill="#8b95a1"/>
<text x="864.0" y="231.0" class="tiny" text-anchor="middle">90</text>
<text x="843.0" y="528.0" class="small" text-anchor="middle">A</text>
<rect x="970" y="363.70000000000005" width="34" height="136.29999999999998" fill="#b8324f"/>
<text x="987.0" y="355.7" class="tiny" text-anchor="middle">47</text>
<rect x="1012" y="442.0" width="34" height="58.0" fill="#8b95a1"/>
<text x="1029.0" y="434.0" class="tiny" text-anchor="middle">20</text>
<text x="1008.0" y="528.0" class="small" text-anchor="middle">B</text>
<g class="math-label" data-math-tex="\mathrm{Blended}=0.40S_{\mathrm{abs}}+0.25S_{\mathrm{chg}}+0.35S_{\mathrm{imp}}" data-math-x="855" data-math-y="580" data-math-anchor="middle" data-math-size="12" data-math-display="0"><text x="855.0" y="580.0" class="small" text-anchor="middle">Blended = 0.40*S_abs + 0.25*S_chg + 0.35*S_imp</text></g>
<g class="math-label" data-math-tex="\mathrm{Impact\ band:}\ \mathrm{TXx}\ 40{-}45^\circ\mathrm{C};\ \mathrm{cohort}\ q_{10}/q_{90}:41{-}46^\circ\mathrm{C}\ \mathrm{and}\ +1.0/+3.5^\circ\mathrm{C}" data-math-x="855" data-math-y="605" data-math-anchor="middle" data-math-size="12" data-math-display="0"><text x="855.0" y="605.0" class="small" text-anchor="middle">Impact band: TXx 40-45 deg C; cohort q10/q90: 41-46 deg C and +1.0/+3.5 deg C</text></g>
</svg>
